/vscmnt/brussel_pixiu_data/_data_brussel/112/vsc11236/PredSimResults/SUBJ09opt3D/expIG/worker_09.mot
version=1
nRows=9
nColumns=50
inDegrees=yes
endheader
                time	         pelvis_tilt	         pelvis_list	     pelvis_rotation	           pelvis_tx	           pelvis_ty	           pelvis_tz	       hip_flexion_r	     hip_adduction_r	      hip_rotation_r	        knee_angle_r	       ankle_angle_r	         mtp_angle_r	       hip_flexion_l	     hip_adduction_l	      hip_rotation_l	        knee_angle_l	       ankle_angle_l	         mtp_angle_l	    lumbar_extension	      lumbar_bending	     lumbar_rotation	 ercspn_r/activation	 intobl_r/activation	 extobl_r/activation	    abd_r/activation	    add_r/activation	hamstrings_r/activation	bifemsh_r/activation	glut_max_r/activation	iliopsoas_r/activation	rect_fem_r/activation	  vasti_r/activation	gastroc_r/activation	 soleus_r/activation	tib_ant_r/activation	 ercspn_l/activation	 intobl_l/activation	 extobl_l/activation	    abd_l/activation	    add_l/activation	hamstrings_l/activation	bifemsh_l/activation	glut_max_l/activation	iliopsoas_l/activation	rect_fem_l/activation	  vasti_l/activation	gastroc_l/activation	 soleus_l/activation	tib_ant_l/activation	
          1.77346261	         -5.11894646	          1.80934706	         -9.18021679	          2.48284766	          0.98209487	          0.00323453	        -15.23094221	         -3.38909801	         -3.34725540	        -10.17951036	          1.37831124	         40.34273582	         31.13795171	         -1.18085475	         -9.19886476	         -7.43326637	          5.02087184	          0.25290434	        -12.78656007	         -0.31691338	          6.85663278	          0.06097634	          0.01000022	          0.01000025	          0.02340222	          0.05327871	          0.02289567	          0.19517905	          0.01016461	          0.03562529	          0.01000031	          0.01000020	          0.30577108	          0.18853060	          0.01197064	          0.04172591	          0.13254716	          0.02053504	          0.01000022	          0.25649448	          0.06932520	          0.14809775	          0.15458742	          0.12543534	          0.01000050	          0.01000026	          0.01715531	          0.01131608	          0.36131204	
          1.78528570	         -5.10617103	          1.95055623	         -9.15597915	          2.50440205	          0.97971140	          0.00263419	        -15.71493740	         -3.77433393	         -3.83770261	        -11.40734824	          0.02002287	         41.95407572	         31.00581128	         -0.97530184	         -9.35096900	         -9.38179988	          4.60164462	          0.20916372	        -12.24600686	         -0.73875756	          7.05231185	          0.05094015	          0.01000013	          0.01000019	          0.01954989	          0.04450848	          0.02053947	          0.16305003	          0.01000013	          0.09639662	          0.01000036	          0.01000031	          0.25543699	          0.15749587	          0.01000011	          0.03485751	          0.11072806	          0.01715470	          0.11645450	          0.22985254	          0.07163365	          0.12371885	          0.18968071	          0.10478693	          0.01000016	          0.01000016	          0.01433137	          0.01197052	          0.40835700	
          1.79710878	         -5.07697336	          2.08810206	         -9.09567952	          2.52596331	          0.97766692	          0.00193588	        -15.88350486	         -4.17915016	         -4.33860068	        -13.22251627	         -1.36488776	         43.28179635	         30.82818255	         -0.75958329	         -9.45031904	        -11.26361151	          4.02669470	          0.19905297	        -11.72325513	         -1.15475664	          7.21482886	          0.06812193	          0.01000009	          0.01000012	          0.01633171	          0.03718272	          0.01715872	          0.13620986	          0.01000007	          0.15841588	          0.01000018	          0.01000013	          0.21338851	          0.13156986	          0.01000002	          0.02912053	          0.09250068	          0.01433081	          0.17763249	          0.26494478	          0.05984184	          0.10335305	          0.23314991	          0.08753755	          0.01000012	          0.01000028	          0.01197226	          0.01000006	          0.45859135	
          1.80893186	         -5.03303665	          2.22582025	         -9.00435271	          2.54715791	          0.97617588	          0.00112955	        -15.61761403	         -4.61850087	         -4.84685771	        -15.78881773	         -2.72490260	         44.07734968	         30.76375650	         -0.53861725	         -9.49445138	        -13.33085281	          3.49197143	          0.15781670	        -11.26086596	         -1.57161413	          7.34279918	          0.11083199	          0.01000010	          0.01000008	          0.01364329	          0.12303912	          0.01433425	          0.11378795	          0.01000003	          0.17510539	          0.01000015	          0.01000005	          0.17826178	          0.10991163	          0.01000004	          0.05137327	          0.07727379	          0.01197177	          0.22000773	          0.30850979	          0.05446918	          0.08633974	          0.26326647	          0.07312765	          0.01000018	          0.13759673	          0.01000158	          0.01000029	          0.48223659	
          1.82075495	         -4.97841484	          2.35004518	         -8.88128861	          2.56782295	          0.97544146	          0.00024496	        -14.85159224	         -5.08822594	         -5.38940113	        -19.19592559	         -4.02058514	         43.96946961	         30.72788382	         -0.31700529	         -9.50132310	        -15.47438361	          3.32332813	          0.10639406	        -10.87419173	         -1.97591982	          7.43260773	          0.12454741	          0.01000007	          0.01000010	          0.01139742	          0.17943977	          0.01197474	          0.09505702	          0.01000002	          0.14628085	          0.01000013	          0.01000002	          0.14891740	          0.09181865	          0.01000002	          0.04291678	          0.06455345	          0.01000108	          0.24092552	          0.29813358	          0.04729591	          0.07212707	          0.27046720	          0.06108982	          0.01000021	          0.25392556	          0.01000044	          0.01000033	          0.48229893	
          1.83257803	         -4.91806404	          2.44946475	         -8.72128882	          2.58786078	          0.97561959	         -0.00068368	        -13.57898222	         -5.58806938	         -5.96857160	        -23.36649121	         -5.49345669	         42.97920893	         30.59160777	         -0.08901692	         -9.48201381	        -17.45863074	          3.56763209	          0.06872496	        -10.57088322	         -2.35697627	          7.47637110	          0.12168959	          0.01000004	          0.01000010	          0.01000001	          0.22619194	          0.01000406	          0.07940950	          0.01000001	          0.12220106	          0.01000009	          0.01000001	          0.12440352	          0.07670402	          0.01002612	          0.03585217	          0.05392706	          0.01000007	          0.25157190	          0.30585216	          0.05200437	          0.06025400	          0.25253162	          0.05103359	          0.01000018	          0.29538223	          0.01000020	          0.01000009	          0.44265279	
          1.84440112	         -4.85519974	          2.50648971	         -8.52211700	          2.60724154	          0.97668849	         -0.00161668	        -11.85196128	         -6.10819491	         -6.55894975	        -28.13890788	         -7.20143010	         40.89603015	         30.28248342	          0.13901106	         -9.41584300	        -19.13171746	          4.12030441	          0.05498195	        -10.35188897	         -2.69755620	          7.47008755	          0.11091168	          0.01757800	          0.01000024	          0.01000001	          0.23914786	          0.01715435	          0.06633770	          0.01000003	          0.10208511	          0.01000008	          0.01000001	          0.10392497	          0.06407747	          0.05857578	          0.02995044	          0.04504992	          0.01000015	          0.26981581	          0.28627817	          0.05241560	          0.05033541	          0.21096217	          0.04263275	          0.01000012	          0.33030968	          0.01000080	          0.01000061	          0.38120896	
          1.85622420	         -4.79191050	          2.52019029	         -8.28845352	          2.62592665	          0.97851704	         -0.00250856	         -9.75468300	         -6.63681895	         -7.06744801	        -33.35695038	         -8.80409481	         37.21148598	         29.77377651	          0.36926789	         -9.27885221	        -20.41561399	          4.85456112	          0.11228989	        -10.21688991	         -2.99883319	          7.41122592	          0.14166720	          0.06028148	          0.05066163	          0.01000756	          0.19978081	          0.01433057	          0.05541776	          0.01000025	          0.08528052	          0.01000044	          0.01000002	          0.08681747	          0.05352942	          0.19037695	          0.02502022	          0.03763408	          0.01000010	          0.24642903	          0.23967170	          0.05949362	          0.04204956	          0.17623513	          0.03561481	          0.01000012	          0.35242574	          0.01000022	          0.01000010	          0.32198981	
          1.86804728	         -4.72891907	          2.50052087	         -8.01426268	          2.64388296	          0.98091418	         -0.00332855	         -7.42343565	         -7.09103752	         -7.32614661	        -38.74517821	         -9.78323171	         32.20281411	         29.08065502	          0.60345622	         -9.09034107	        -21.29687796	          5.58267600	          0.25829283	        -10.16737034	         -3.26798225	          7.28537073	          0.15468751	          0.06635640	          0.09364154	          0.01341498	          0.16689413	          0.01197161	          0.04635445	          0.01000028	          0.07124226	          0.01000037	          0.01000001	          0.07252611	          0.04471774	          0.21208385	          0.02090158	          0.03143900	          0.01000009	          0.21344731	          0.20351058	          0.04996932	          0.03512767	          0.14722454	          0.02975212	          0.01000013	          0.34665771	          0.01000021	          0.01000011	          0.26898615	
